<?xml version="1.0" standalone="no"?>
<!DOCTYPE svg PUBLIC "-//W3C//DTD SVG 20010904//EN"
 "http://www.w3.org/TR/2001/REC-SVG-20010904/DTD/svg10.dtd">
<svg version="1.0" xmlns="http://www.w3.org/2000/svg"
 width="500.000000pt" height="500.000000pt" viewBox="0 0 500.000000 500.000000"
 preserveAspectRatio="xMidYMid meet">
<metadata>
Created by potrace 1.14, written by Peter Selinger 2001-2017
</metadata>
<g transform="translate(0.000000,500.000000) scale(0.100000,-0.100000)"
fill="#000000" stroke="none">
<path d="M2280 4989 c-898 -80 -1685 -639 -2057 -1464 -311 -687 -291 -1489
52 -2160 356 -696 1016 -1186 1785 -1324 424 -77 900 -35 1307 115 231 85 501
239 703 400 126 101 313 294 412 424 117 155 187 268 268 435 382 779 318
1737 -163 2458 -112 167 -188 259 -331 402 -518 515 -1247 779 -1976 714z
m-508 -1307 c107 -221 319 -414 516 -473 50 -14 50 -12 12 -140 l-21 -68 -72
25 c-238 85 -432 247 -566 472 -51 85 -109 218 -99 227 6 6 157 53 173 54 6 0
31 -44 57 -97z m1693 -17 c180 -47 304 -166 305 -294 l1 -46 155 -110 c133
-93 153 -111 139 -121 -9 -7 -83 -49 -164 -95 l-148 -84 -42 -96 c-49 -113
-156 -302 -241 -429 -483 -719 -1299 -1175 -2170 -1215 -219 -10 -218 -32 -18
255 837 1203 1362 1927 1471 2032 112 109 282 194 434 218 74 11 201 5 278
-15z m-1859 -387 c119 -147 309 -275 497 -334 31 -10 57 -22 57 -28 0 -19 -38
-158 -45 -164 -9 -10 -158 45 -255 93 -166 84 -314 206 -421 348 -54 72 -129
203 -129 225 0 5 37 23 82 39 l83 30 38 -71 c22 -39 63 -101 93 -138z m-216
-271 c110 -120 318 -243 485 -287 44 -12 85 -23 91 -25 8 -2 8 -24 -2 -81 -7
-42 -15 -78 -17 -80 -5 -5 -176 42 -234 65 -139 55 -276 140 -388 242 -59 55
-175 193 -175 210 0 5 30 24 68 43 l67 35 30 -37 c16 -20 50 -59 75 -85z"/>
<path d="M3154 3481 c-178 -48 -257 -111 -423 -334 -283 -381 -1265 -1766
-1258 -1774 10 -9 219 28 354 62 254 65 557 200 778 348 309 205 580 488 780
812 66 107 215 398 215 422 0 6 32 31 70 54 39 24 70 47 70 50 0 4 -34 28 -75
55 l-75 49 0 71 c0 90 -22 127 -103 168 -50 26 -70 30 -160 33 -78 2 -119 -1
-173 -16z m219 -252 c36 -39 36 -79 -2 -121 -24 -27 -36 -33 -70 -33 -111 0
-148 129 -51 178 45 22 87 14 123 -24z"/>
</g>
</svg>
