<?xml version="1.0" standalone="no"?>
<!DOCTYPE svg PUBLIC "-//W3C//DTD SVG 20010904//EN"
 "http://www.w3.org/TR/2001/REC-SVG-20010904/DTD/svg10.dtd">
<svg version="1.0" xmlns="http://www.w3.org/2000/svg"
 width="500.000000pt" height="500.000000pt" viewBox="0 0 500.000000 500.000000"
 preserveAspectRatio="xMidYMid meet">
<metadata>
Created by potrace 1.14, written by Peter Selinger 2001-2017
</metadata>
<g transform="translate(0.000000,500.000000) scale(0.100000,-0.100000)"
fill="#000000" stroke="none">
<path d="M2270 4990 c-416 -43 -815 -184 -1143 -403 -167 -112 -259 -188 -402
-331 -196 -197 -350 -415 -475 -671 -382 -779 -318 -1737 163 -2458 112 -167
188 -259 331 -402 392 -389 876 -625 1451 -707 116 -16 493 -16 610 0 412 58
751 185 1085 407 598 397 990 1032 1091 1765 17 122 18 497 1 615 -58 412
-185 751 -407 1085 -391 588 -1016 981 -1730 1086 -122 18 -458 26 -575 14z
m520 -948 c53 -29 66 -67 89 -271 12 -101 22 -185 23 -186 2 -2 41 -21 88 -43
47 -22 120 -65 164 -95 l79 -54 166 72 c91 39 178 75 192 78 37 9 91 -9 121
-40 41 -46 260 -435 265 -473 10 -69 -12 -96 -178 -219 l-154 -114 0 -197 0
-197 152 -113 c165 -122 189 -152 180 -219 -6 -44 -235 -445 -276 -482 -56
-52 -81 -48 -285 39 l-184 79 -78 -54 c-44 -30 -117 -73 -164 -95 -47 -23 -86
-42 -88 -43 -1 -1 -11 -85 -23 -186 -34 -299 -21 -289 -384 -289 -363 0 -350
-10 -385 290 -11 101 -22 185 -23 185 -1 1 -49 25 -107 53 -58 28 -131 71
-163 95 l-57 44 -186 -80 c-208 -89 -229 -92 -289 -34 -45 44 -266 430 -272
476 -10 71 12 98 178 220 l154 114 0 197 0 197 -153 112 c-166 123 -187 148
-179 215 6 50 231 446 276 488 54 48 83 46 227 -15 71 -31 154 -67 185 -81
l56 -25 69 51 c38 27 112 70 164 96 52 25 96 46 97 47 1 0 12 84 23 185 35
300 22 290 385 290 234 0 264 -2 295 -18z"/>
<path d="M2361 3144 c-36 -7 -96 -29 -135 -47 -245 -117 -388 -342 -389 -607
-1 -451 435 -778 863 -648 157 48 309 166 388 300 84 142 114 330 77 492 -55
248 -263 455 -512 510 -87 19 -205 19 -292 0z"/>
</g>
</svg>
