<svg xmlns="http://www.w3.org/2000/svg" xmlns:xlink="http://www.w3.org/1999/xlink" width="527" height="197" fill="none" xmlns:v="https://vecta.io/nano">
  <path id="body" fill-rule="evenodd" d="M360 174.5L447 52c22.386-29 62-19 62 0v2l17.5 12.5L508 77c-32.5 77.5-104.5 100-148 97.5zm19.5-10.5L457 55.5c16-17 42.5-12.999 42-1.5V59.5l9 6-8 5c-28.5 70-88 90.5-120.5 93.5z" fill="url(#A)"/>
  <path id="wing1" d="M408.5 89.5C381.5 84.5 370 65 370 65l-8 4s13 23.5 45 29.5l1.5-9z" fill="url(#B)"/>
  <path id="wing2" d="M419 76.5c-30-8-38.5-31.5-38.5-31.5l-9.5 3.5s9.5 28 45.5 38l2.5-10z" fill="url(#C)"/>
  <path id="wing3" d="M428.5 61.5c-25.5-7-34-33-34-33l-10.5 3S392.5 63 425.5 72l3-10.5z" fill="url(#D)"/>
  <ellipse id="eye" cx="482.513" cy="62.758" rx="5.759" ry="5.316" fill="#240b36"/>
  <path id="firstname" d="M64.992 90V40.944L44.736 78.096h-5.952L18.432 40.944V90H7.68V21.84H19.2l22.56 41.664L64.32 21.84h11.52V90H64.992zm37.751.96c-2.432 0-4.704-.384-6.816-1.152-2.048-.832-3.84-1.952-5.376-3.36-1.472-1.408-2.656-3.072-3.552-4.992-.832-1.92-1.248-4-1.248-6.24 0-2.368.512-4.512 1.536-6.432s2.464-3.584 4.32-4.992c1.92-1.408 4.16-2.496 6.72-3.264 2.624-.768 5.505-1.152 8.641-1.152a36.63 36.63 0 0 1 7.008.672c2.304.384 4.384.928 6.24 1.632v-3.456c0-3.712-1.056-6.592-3.168-8.64-2.112-2.112-5.152-3.168-9.12-3.168-2.688 0-5.344.512-7.969 1.536-2.56.96-5.216 2.368-7.968 4.224l-3.264-6.72c6.464-4.352 13.185-6.528 20.161-6.528 6.912 0 12.288 1.76 16.128 5.28s5.76 8.576 5.76 15.168V77.52c0 2.24.928 3.392 2.784 3.456V90c-1.024.192-1.92.32-2.688.384-.704.064-1.408.096-2.112.096-2.048 0-3.648-.512-4.8-1.536-1.088-1.024-1.76-2.336-2.016-3.936l-.288-3.168c-2.24 2.944-5.024 5.216-8.352 6.816-3.264 1.536-6.784 2.304-10.56 2.304zm2.88-7.776c2.56 0 4.96-.448 7.2-1.344 2.304-.96 4.096-2.272 5.376-3.936 1.344-1.152 2.016-2.368 2.016-3.648v-6.624c-1.792-.704-3.712-1.248-5.76-1.632a30.77 30.77 0 0 0-5.856-.576c-3.776 0-6.88.832-9.312 2.496-2.368 1.6-3.552 3.744-3.552 6.432 0 2.496.928 4.608 2.784 6.336 1.856 1.664 4.224 2.496 7.105 2.496zm66.187-34.272c-4.096.128-7.744 1.088-10.944 2.88-3.136 1.728-5.376 4.224-6.72 7.488V90h-10.56V39.792h9.792v11.232c1.728-3.456 3.968-6.208 6.72-8.256 2.816-2.112 5.824-3.264 9.024-3.456h1.536c.448 0 .832.032 1.152.096v9.504zm35.618 38.496c-1.344.64-3.2 1.376-5.568 2.208-2.368.768-4.896 1.152-7.584 1.152-1.664 0-3.232-.224-4.704-.672s-2.784-1.12-3.936-2.016c-1.088-.896-1.952-2.048-2.592-3.456-.64-1.472-.96-3.232-.96-5.28V47.952h-6.624v-8.16h6.624V23.28h10.56v16.512h10.944v8.16h-10.944v28.032c.128 1.792.672 3.104 1.632 3.936 1.024.768 2.272 1.152 3.744 1.152s2.88-.256 4.224-.768 2.336-.928 2.976-1.248l2.208 8.352zM214.742 90V39.792h10.56V90h-10.56zm0-58.464V19.92h10.56v11.616h-10.56zM283.016 90h-10.56V61.872c0-4.736-.768-8.16-2.304-10.272-1.472-2.176-3.68-3.264-6.624-3.264-1.536 0-3.072.288-4.608.864s-2.976 1.408-4.32 2.496c-1.344 1.024-2.56 2.272-3.648 3.744-1.024 1.408-1.824 2.976-2.4 4.704V90h-10.56V39.792h9.6v10.08c1.92-3.392 4.704-6.048 8.352-7.968 3.648-1.984 7.68-2.976 12.096-2.976 3.008 0 5.472.544 7.392 1.632s3.424 2.592 4.512 4.512c1.152 1.856 1.952 4.032 2.4 6.528.448 2.432.672 5.024.672 7.776V90z" fill="url(#F)"/>
  <path id="surname" d="M7.68 174v-68.16h24.192c5.504 0 10.304.896 14.4 2.688 4.16 1.792 7.616 4.224 10.368 7.296 2.816 3.072 4.928 6.688 6.336 10.848 1.408 4.096 2.112 8.48 2.112 13.152 0 5.184-.8 9.888-2.4 14.112-1.536 4.16-3.744 7.744-6.624 10.752-2.88 2.944-6.368 5.248-10.464 6.912-4.096 1.6-8.672 2.4-13.728 2.4H7.68zm46.464-34.176c0-3.584-.512-6.88-1.536-9.888-.96-3.008-2.4-5.568-4.32-7.68-1.92-2.176-4.256-3.872-7.008-5.088s-5.888-1.824-9.408-1.824h-13.44v49.152h13.44c3.584 0 6.752-.608 9.504-1.824 2.816-1.28 5.152-3.008 7.008-5.184 1.92-2.24 3.36-4.864 4.32-7.872s1.44-6.272 1.44-9.792zm49.135-6.912c-4.096.128-7.744 1.088-10.944 2.88-3.136 1.728-5.376 4.224-6.72 7.488V174h-10.56v-50.208h9.792v11.232c1.728-3.456 3.968-6.208 6.72-8.256 2.816-2.112 5.824-3.264 9.024-3.456h1.536c.448 0 .832.032 1.152.096v9.504zm27.711 42.048c-3.968 0-7.552-.704-10.752-2.112-3.136-1.408-5.824-3.296-8.064-5.664s-3.968-5.12-5.184-8.256c-1.216-3.2-1.824-6.528-1.824-9.984s.608-6.752 1.824-9.888c1.216-3.2 2.944-5.984 5.184-8.352 2.304-2.368 5.024-4.256 8.16-5.664 3.2-1.408 6.752-2.112 10.656-2.112s7.424.704 10.56 2.112c3.2 1.408 5.92 3.296 8.16 5.664 2.304 2.368 4.064 5.152 5.28 8.352 1.216 3.136 1.824 6.432 1.824 9.888s-.608 6.784-1.824 9.984c-1.216 3.136-2.976 5.888-5.28 8.256-2.24 2.368-4.96 4.256-8.16 5.664-3.136 1.408-6.656 2.112-10.56 2.112zm-14.976-25.92c0 2.432.384 4.672 1.152 6.72s1.824 3.84 3.168 5.376a16.01 16.01 0 0 0 4.704 3.552c1.856.832 3.84 1.248 5.952 1.248s4.064-.416 5.856-1.248a14.94 14.94 0 0 0 4.8-3.648c1.344-1.536 2.4-3.328 3.168-5.376s1.152-4.288 1.152-6.72c0-2.368-.384-4.576-1.152-6.624-.768-2.112-1.824-3.936-3.168-5.472s-2.944-2.72-4.8-3.552c-1.792-.896-3.744-1.344-5.856-1.344-2.048 0-4 .448-5.856 1.344-1.792.896-3.36 2.112-4.704 3.648s-2.432 3.36-3.264 5.472c-.768 2.048-1.152 4.256-1.152 6.624zm45.205 18.336l30.144-36.096h-29.088v-7.488h40.224v6.624l-29.952 36.096h30.24V174h-41.568v-6.624zm70.128 7.584c-3.392 0-6.528-.672-9.408-2.016a24.14 24.14 0 0 1-7.488-5.664c-2.112-2.368-3.776-5.12-4.992-8.256-1.152-3.2-1.729-6.624-1.729-10.272 0-3.52.545-6.816 1.633-9.888 1.152-3.136 2.72-5.888 4.704-8.256 2.048-2.368 4.416-4.224 7.104-5.568 2.752-1.408 5.76-2.112 9.024-2.112 4.032 0 7.584.992 10.656 2.976 3.072 1.92 5.472 4.384 7.2 7.392V103.92h10.56v57.6c0 1.216.192 2.08.576 2.592.448.512 1.216.8 2.304.864V174c-1.088.192-1.984.32-2.689.384a16.77 16.77 0 0 1-1.631.096c-2.112 0-3.84-.544-5.184-1.632s-2.08-2.496-2.208-4.224l-.192-3.744c-1.856 3.136-4.384 5.6-7.584 7.392s-6.752 2.688-10.656 2.688zm2.592-9.024c1.536 0 3.072-.256 4.608-.768s2.944-1.216 4.224-2.112 2.368-1.952 3.264-3.168c.96-1.216 1.632-2.528 2.016-3.936V142.8a15.11 15.11 0 0 0-2.496-4.416 16.52 16.52 0 0 0-3.552-3.456c-1.344-.96-2.784-1.696-4.32-2.208-1.472-.512-2.976-.768-4.512-.768-2.112 0-4.064.48-5.856 1.44-1.728.96-3.232 2.24-4.512 3.84s-2.304 3.424-3.072 5.472a19.36 19.36 0 0 0-1.057 6.336c0 2.304.385 4.48 1.153 6.528.832 2.048 1.952 3.84 3.36 5.376s3.008 2.752 4.8 3.648c1.856.896 3.84 1.344 5.952 1.344zm45.765-49.344l-6.912-2.112 5.472-10.56h10.08l-8.64 12.672zM272.023 174v-50.208h10.561V174h-10.561zm58.195 0l-16.032-23.136-8.352 7.872V174h-10.561v-70.08h10.561v44.448l23.04-24.48h11.52l-19.488 21.024L341.45 174h-11.232z" fill="url(#E)"/>
  <defs>
    <linearGradient id="A" x1="360" y1="174.5" x2="505.5" y2="42.5" xlink:href="#G">
      <stop stop-color="#c31432"/>
      <stop offset="1" stop-color="#240b36"/>
    </linearGradient>
    <linearGradient id="B" x1="366" y1="67.5" x2="407.5" y2="94.5" xlink:href="#G">
      <stop stop-color="#c31432"/>
      <stop offset="1" stop-color="#240b36"/>
    </linearGradient>
    <linearGradient id="C" x1="376" y1="46.5" x2="417.5" y2="82" xlink:href="#G">
      <stop stop-color="#c31432"/>
      <stop offset="1" stop-color="#240b36"/>
    </linearGradient>
    <linearGradient id="D" x1="389.5" y1="30" x2="426.5" y2="67" xlink:href="#G">
      <stop stop-color="#c31432"/>
      <stop offset="1" stop-color="#240b36"/>
    </linearGradient>
    <linearGradient id="E" x1="0" y1="141" x2="342" y2="141" xlink:href="#G">
      <stop stop-color="#c31432"/>
      <stop offset="1" stop-color="#240b36"/>
    </linearGradient>
    <linearGradient id="F" x1="0" y1="57" x2="289" y2="57" xlink:href="#G">
      <stop stop-color="#c31432"/>
      <stop offset="1" stop-color="#240b36"/>
    </linearGradient>
    <linearGradient id="G" gradientUnits="userSpaceOnUse"/>
  </defs>
</svg>