<?xml version="1.0" standalone="no"?>
<!DOCTYPE svg PUBLIC "-//W3C//DTD SVG 20010904//EN"
 "http://www.w3.org/TR/2001/REC-SVG-20010904/DTD/svg10.dtd">
<svg version="1.0" xmlns="http://www.w3.org/2000/svg"
 width="512.000000pt" height="512.000000pt" viewBox="0 0 512.000000 512.000000"
 preserveAspectRatio="xMidYMid meet">
<metadata>
Created by potrace 1.11, written by Peter Selinger 2001-2013
</metadata>
<g transform="translate(0.000000,512.000000) scale(0.100000,-0.100000)"
fill="#000000" stroke="none">
<path d="M0 2560 l0 -2560 2560 0 2560 0 0 2560 0 2560 -2560 0 -2560 0 0
-2560z m2789 1524 c133 -40 215 -88 301 -174 80 -80 123 -146 160 -248 22 -60
23 -70 15 -230 -9 -210 -9 -234 2 -307 14 -95 -13 -219 -72 -332 -15 -28 -36
-95 -46 -150 -24 -125 -53 -204 -98 -271 -80 -118 -76 -105 -79 -258 -6 -216
-1 -222 228 -298 130 -44 268 -92 320 -114 14 -6 52 -20 85 -33 120 -44 341
-159 401 -208 95 -77 104 -104 104 -294 l0 -157 -1550 0 -1550 0 0 138 c0 145
11 197 52 255 76 106 388 255 868 412 160 53 194 72 215 121 18 45 21 264 3
315 -6 19 -33 65 -59 102 -51 73 -85 167 -114 317 -10 48 -29 107 -45 135 -33
59 -67 168 -76 246 -5 42 -2 72 11 113 12 38 15 68 10 93 -13 72 -16 108 -17
233 -2 119 0 129 29 195 86 200 219 321 425 390 97 32 111 34 247 34 127 1
153 -2 230 -25z"/>
</g>
</svg>
