<?xml version="1.0" standalone="no"?>
<!DOCTYPE svg PUBLIC "-//W3C//DTD SVG 20010904//EN"
 "http://www.w3.org/TR/2001/REC-SVG-20010904/DTD/svg10.dtd">
<svg version="1.0" xmlns="http://www.w3.org/2000/svg"
 width="500.000000pt" height="500.000000pt" viewBox="0 0 500.000000 500.000000"
 preserveAspectRatio="xMidYMid meet">
<metadata>
Created by potrace 1.14, written by Peter Selinger 2001-2017
</metadata>
<g transform="translate(0.000000,500.000000) scale(0.100000,-0.100000)"
fill="#000000" stroke="none">
<path d="M2270 4990 c-416 -43 -815 -184 -1143 -403 -167 -112 -259 -188 -402
-331 -196 -197 -350 -415 -475 -671 -382 -779 -318 -1737 163 -2458 112 -167
188 -259 331 -402 392 -389 876 -625 1451 -707 116 -16 493 -16 610 0 412 58
751 185 1085 407 598 397 990 1032 1091 1765 17 122 18 497 1 615 -58 412
-185 751 -407 1085 -391 588 -1016 981 -1730 1086 -122 18 -458 26 -575 14z
m440 -1220 c264 -76 466 -278 546 -545 34 -115 38 -289 10 -400 -40 -154 -125
-297 -242 -404 -37 -34 -65 -63 -63 -65 2 -1 38 -19 79 -39 245 -117 445 -318
570 -572 79 -159 130 -356 130 -497 l0 -48 -510 0 c-280 0 -510 2 -510 6 0 3
-25 153 -55 334 -30 181 -55 331 -55 334 0 4 -52 6 -115 6 -63 0 -115 -2 -115
-6 0 -3 -25 -153 -55 -334 -30 -181 -55 -331 -55 -334 0 -4 -230 -6 -511 -6
l-512 0 6 88 c26 357 209 692 497 908 71 54 218 139 269 155 8 3 -21 39 -81
99 -76 77 -103 112 -141 187 -105 204 -122 416 -51 625 95 280 323 472 634
532 60 11 256 -3 330 -24z"/>
<path d="M2302 2229 c3 -8 22 -65 42 -126 l38 -113 113 0 113 0 41 122 c22 67
39 123 37 125 -2 2 -27 -2 -57 -8 -56 -12 -279 -8 -313 7 -15 5 -18 4 -14 -7z"/>
</g>
</svg>
